<?xml version="1.0" encoding="utf-8"?>
<!-- Generator: Adobe Illustrator 22.0.1, SVG Export Plug-In . SVG Version: 6.00 Build 0)  -->
<svg version="1.1" id="Layer_1" xmlns="http://www.w3.org/2000/svg" xmlns:xlink="http://www.w3.org/1999/xlink" x="0px" y="0px"
	 viewBox="0 0 451.8 297.6" style="enable-background:new 0 0 451.8 297.6;" xml:space="preserve">
<style type="text/css">
	.st0{fill:#FFFFFF;}
</style>
<g>
	<path class="st0" d="M301.9,132.9c3.4,0,6.2,2.7,6.2,6c0,3.4-2.7,6.1-6.2,6.1c-3.5,0-6.3-2.7-6.3-6.1
		C295.6,135.6,298.4,132.9,301.9,132.9L301.9,132.9z M301.8,134.2c-2.6,0-4.7,2.2-4.7,4.8c0,2.7,2,4.8,4.7,4.8
		c2.6,0,4.6-2.1,4.6-4.8C306.5,136.3,304.5,134.2,301.8,134.2L301.8,134.2z M300.9,142.1h-1.4v-6c0.6-0.1,1.3-0.2,2.3-0.2
		c1.1,0,1.7,0.2,2.1,0.5c0.4,0.3,0.6,0.7,0.6,1.3c0,0.7-0.6,1.2-1.3,1.4v0.1c0.6,0.2,0.9,0.7,1.1,1.5c0.2,0.9,0.3,1.3,0.4,1.5h-1.5
		c-0.2-0.2-0.3-0.7-0.5-1.5c-0.1-0.6-0.5-0.9-1.3-0.9h-0.7V142.1z M300.9,138.7h0.7c0.8,0,1.4-0.3,1.4-0.9c0-0.6-0.4-0.9-1.3-0.9
		c-0.4,0-0.6,0-0.8,0.1V138.7z"/>
	<polygon class="st0" points="214,2.7 211.7,2.7 173,77.7 108.2,37.9 104.3,37.8 137.4,140.3 159.8,137.2 140.4,80.1 183.7,105.3 
		191.6,89 191.6,89 212.6,47.2 230.3,84.1 249.2,73.1 	"/>
	<polygon class="st0" points="316.5,37.9 212.4,101.2 196.8,92.1 189.1,108.4 211,121.2 212.4,121.2 213.7,121.2 284.3,80.1 
		264.9,137.2 287.3,140.3 320.4,37.8 	"/>
</g>
<g>
	<polygon class="st0" points="57,209.2 5.7,162.3 2,162.3 2,243.9 18.4,243.9 18.4,194.7 55.7,228.7 58.2,228.7 93.5,194.8 
		93.5,243.9 110,243.9 110,162.3 106.2,162.3 	"/>
	<rect x="130.2" y="163.5" class="st0" width="16.4" height="80.4"/>
	<path class="st0" d="M210.3,161.2l-55.6,82.7h17.6l9.9-14.8h59.3l10.2,14.8H270l-56.7-82.7H210.3z M231.8,215h-40.2l19.9-29.6
		L231.8,215z"/>
	<polygon class="st0" points="331.8,209.2 280.5,162.3 276.8,162.3 276.8,243.9 293.2,243.9 293.2,194.7 330.4,228.7 332.9,228.7 
		368.3,194.8 368.3,243.9 384.7,243.9 384.7,162.3 381,162.3 	"/>
	<rect x="405" y="163.5" class="st0" width="16.4" height="80.4"/>
</g>
<path class="st0" d="M25.3,296.6c-13.1,0-22.5-5.5-22.5-15.3c0-9.8,10-15.7,22.2-15.7c9.3,0,13.8,1.7,15.6,2.4v3.6l-0.2,0.1
	c-2.3-1.5-6.4-3.9-15.3-3.9c-10.4,0-17.7,4.4-17.7,13.4c0,8.6,6.3,13,17.9,13c8,0,12-2.1,16-5.2l0.2,0.1v3.8
	C39.4,294.2,34,296.6,25.3,296.6z"/>
<path class="st0" d="M67,296.6c-11.3,0-21.6-5.1-21.6-15.4c0-10.7,10.9-15.6,21.6-15.6c10.7,0,21.6,4.8,21.6,15.5
	C88.6,291.4,78.3,296.6,67,296.6z M66.9,294.3c10.9,0,17.2-4.8,17.2-13.1c0-8.4-6.6-13.3-17.2-13.3c-10.5,0-17,4.9-17,13.2
	C49.9,289.4,56,294.3,66.9,294.3z"/>
<path class="st0" d="M95.4,266h3.8c8.8,8.3,19.6,17.9,28.5,25.7c0.1-6.8,0.1-19.3,0-25.6l0.2-0.1h2.4l0.2,0.2
	c-0.2,8.6-0.2,20.7,0,29.8l-0.2,0.2h-3.6c-7.6-7.3-20.1-18.5-28.6-26c-0.1,6-0.1,18.3,0,25.9l-0.2,0.1h-2.5l-0.1-0.1
	c0.1-7.4,0.1-22.9,0-29.9L95.4,266z"/>
<path class="st0" d="M138.9,296c0.2-9.3,0.2-22.6,0-29.6l0.2-0.2c3.7-0.1,6.9-0.6,15.4-0.6c12.3,0,23.2,5.1,23.2,15.8
	c0,9.6-10.5,15.2-23.2,15.2c-7.5,0-12-0.4-15.4-0.4L138.9,296z M143,293.7c2.6,0.2,4.2,0.7,10.8,0.7c13.1,0,19.3-4.8,19.3-12.9
	c0-8.8-6.5-13.6-19.5-13.6c-5.1,0-7.6,0.4-10.6,0.9C142.9,273.7,142.9,285.5,143,293.7z"/>
<path class="st0" d="M204,296.6c-11.3,0-21.6-5.1-21.6-15.4c0-10.7,10.9-15.6,21.6-15.6c10.7,0,21.6,4.8,21.6,15.5
	C225.6,291.4,215.3,296.6,204,296.6z M203.9,294.3c10.9,0,17.2-4.8,17.2-13.1c0-8.4-6.6-13.3-17.2-13.3c-10.5,0-17,4.9-17,13.2
	C186.9,289.4,193.1,294.3,203.9,294.3z"/>
<path class="st0" d="M249.9,296.1h-3.8L246,296c0.2-9.3,0.2-23,0-29.9l0.2-0.1h3.8l0.2,0.2c-0.1,4.7-0.2,10.9-0.2,17.2
	c9.9-6.5,17.1-12,24.3-17.3h5.4l0.1,0.2c-5.3,3.1-11.7,7.4-18.4,12.1c5.6,5.1,13.2,11.9,20.3,17.7l-0.1,0.2h-5.8
	c-6.6-6.3-11.5-10.6-17.7-15.6l-8.2,5.7c0,3.4,0.1,6.8,0.2,9.8L249.9,296.1z"/>
<path class="st0" d="M286.9,296c0.2-9.3,0.2-22.9,0-29.8l0.1-0.2h3.8l0.2,0.1c-0.2,10.4-0.1,20.1,0,29.9l-0.2,0.1H287L286.9,296z"/>
<path class="st0" d="M300,266h3.8c8.8,8.3,19.6,17.9,28.5,25.7c0.1-6.8,0.1-19.3,0-25.6l0.2-0.1h2.4l0.2,0.2
	c-0.2,8.6-0.2,20.7,0,29.8l-0.2,0.2h-3.6c-7.6-7.3-20.1-18.5-28.6-26c-0.1,6-0.1,18.3,0,25.9l-0.2,0.1h-2.5l-0.1-0.1
	c0.1-7.4,0.1-22.9,0-29.9L300,266z"/>
<path class="st0" d="M363.7,296.6c-13,0-22.2-5.4-22.2-15.3c0-9.6,10.1-15.7,22-15.7c9.9,0,14.5,1.7,16.3,2.5v4l-0.2,0.1
	c-2.2-1.8-6.1-4.3-16-4.3c-10.5,0-17.5,4.5-17.5,13.4c0,9,6,13,17.6,13c6.1,0,9.8-1.1,13.2-2.4c0.1-3.4,0.1-5.4,0-10.5l0.2-0.2h3.8
	l0.2,0.1c-0.2,4.9-0.2,7.7,0,12.1C376.3,295.3,371.4,296.6,363.7,296.6z"/>
<path class="st0" d="M411.7,282.7c-4.7-0.8-11.9-0.1-18.2-1.5c-4.3-1-6.6-3.2-6.6-6.9c0-5.2,5-8.7,16.1-8.7c8.9,0,13.3,1.8,15,2.8
	v3.5l-0.2,0.1c-2-1.7-6.4-4.2-15-4.2c-10.1,0-12.6,2.9-12.6,5.7c0,2.5,1.6,3.9,4.8,4.5c4.9,1,11.7,0.4,17.5,1.3c5,0.7,8,2.8,8,6.9
	c0,5.8-5.4,10.3-17.9,10.3c-9,0-14.3-2.1-16.5-3.5v-3.9l0.2-0.1c3.5,3.1,8.3,5.3,16.5,5.3c10.4,0,14.1-3,14.1-6.8
	C417,285,415.3,283.3,411.7,282.7z"/>
<path class="st0" d="M438.5,163.1v1.6h-3v7.9h-1.9v-7.9h-3v-1.6H438.5z M448.7,172.6l-0.3-5.6c0-0.7,0-1.6-0.1-2.6h-0.1
	c-0.2,0.8-0.5,1.9-0.8,2.8l-1.7,5.3h-2L442,167c-0.2-0.7-0.5-1.8-0.7-2.7h-0.1c0,0.9,0,1.8-0.1,2.6l-0.3,5.6H439l0.7-9.5h2.9
	l1.6,4.6c0.2,0.7,0.4,1.4,0.6,2.4h0.1c0.2-0.8,0.5-1.7,0.6-2.3l1.6-4.7h2.8l0.7,9.5H448.7z"/>
</svg>
